<svg xmlns="http://www.w3.org/2000/svg" shape-rendering="geometricPrecision" text-rendering="geometricPrecision" image-rendering="optimizeQuality" fill-rule="evenodd" clip-rule="evenodd" viewBox="0 0 512 512"><path fill-rule="nonzero" d="M256 0c70.69 0 134.69 28.66 181.01 74.99C483.34 121.31 512 185.31 512 256c0 70.68-28.66 134.69-74.99 181.01C390.69 483.34 326.69 512 256 512s-134.69-28.66-181.01-74.99C28.66 390.69 0 326.68 0 256c0-70.69 28.66-134.69 74.99-181.01C121.31 28.66 185.31 0 256 0zm53.41 276.67v60.37c0 4.74-3.97 8.72-8.71 8.72h-89.41c-4.74 0-8.71-3.92-8.71-8.72v-60.37h-43.45c-4.5-.01-9.01-1.57-12.66-4.74-8.02-6.99-8.86-19.17-1.88-27.19l99.37-114.07c.69-.77 1.43-1.5 2.25-2.18 8.2-6.78 20.34-5.63 27.12 2.56l93.77 113.33c3.14 3.43 5.06 8 5.06 13.01 0 10.65-8.64 19.28-19.29 19.28h-43.46zm96.7-170.78C367.7 67.48 314.62 43.71 256 43.71c-58.62 0-111.7 23.77-150.11 62.18C67.48 144.3 43.71 197.38 43.71 256c0 58.62 23.77 111.7 62.18 150.11 38.41 38.41 91.49 62.18 150.11 62.18 58.62 0 111.7-23.77 150.11-62.18 38.41-38.41 62.18-91.49 62.18-150.11 0-58.62-23.77-111.7-62.18-150.11z"/></svg>